/* XPM */
static char *bitcoin__[] = {
/* columns rows colors chars-per-pixel */
"64 64 256 2",
"   c #373737",
".  c #3C3C3C",
"X  c #7E145E",
"o  c #5F0777",
"O  c #6F1579",
"+  c #7B1378",
"@  c #454545",
"#  c #4B4B4B",
"$  c #535353",
"%  c #5C5C5C",
"&  c #646464",
"*  c #6C6C6C",
"=  c #747474",
"-  c #797979",
";  c #BE1D1D",
":  c #9F193F",
">  c #970834",
",  c #B51A24",
"<  c #BB342F",
"1  c #CC1A06",
"2  c #CC1E0A",
"3  c #C71104",
"4  c #D21A04",
"5  c #D61B06",
"6  c #C11D19",
"7  c #CE210D",
"8  c #D52104",
"9  c #DB2201",
"0  c #D1220A",
"q  c #DD250C",
"w  c #D32612",
"e  c #D62914",
"r  c #DB2A14",
"t  c #DB2E1A",
"y  c #D92510",
"u  c #DE311D",
"i  c #CA2E1B",
"p  c #E22203",
"a  c #E62C07",
"s  c #E3260F",
"d  c #EA2C08",
"f  c #EE340F",
"g  c #E32711",
"h  c #E42A15",
"j  c #EA2B15",
"k  c #E92E18",
"l  c #E3341E",
"z  c #EE331D",
"x  c #E93516",
"c  c #F03713",
"v  c #F33914",
"b  c #F1351F",
"n  c #F23B1A",
"m  c #C73929",
"M  c #D73221",
"N  c #C32D3D",
"B  c #E23521",
"V  c #EC3721",
"C  c #E63925",
"Z  c #EB3A25",
"A  c #EA3D29",
"S  c #F13721",
"D  c #F13A23",
"F  c #DF4329",
"G  c #CC4B3E",
"H  c #EE412D",
"J  c #F0432F",
"K  c #FC4622",
"L  c #E64D3C",
"P  c #F34632",
"I  c #F54935",
"U  c #F84B37",
"Y  c #FA4E3A",
"T  c #F14F3D",
"R  c #FF523E",
"E  c #861454",
"W  c #8C165C",
"Q  c #9C375A",
"!  c #AC2145",
"~  c #B92A46",
"^  c #A4275B",
"/  c #801C78",
"(  c #9E2864",
")  c #8C2375",
"_  c #8C2478",
"`  c #BA6776",
"'  c #DE5142",
"]  c #EA5747",
"[  c #FF5541",
"{  c #FF5A46",
"}  c #CF665C",
"|  c #DA6154",
" . c #EC6A5B",
".. c #E66A5C",
"X. c #F36453",
"o. c #F36959",
"O. c #EB6F62",
"+. c #F16F60",
"@. c #E77568",
"#. c #F27A6D",
"$. c #F37465",
"%. c #DE8372",
"&. c #ED8A7F",
"*. c #F3887C",
"=. c #3D0EAB",
"-. c #2C0CBD",
";. c #350BB5",
":. c #3411BE",
">. c #570F8C",
",. c #5D1086",
"<. c #470B9A",
"1. c #520F93",
"2. c #5F1690",
"3. c #601081",
"4. c #7D1F80",
"5. c #793B99",
"6. c #581EAF",
"7. c #641FA1",
"8. c #4C23B6",
"9. c #6B23A9",
"0. c #7F458B",
"q. c #1400CE",
"w. c #1A05CE",
"e. c #1E0ACC",
"r. c #0902DC",
"t. c #1B0BD4",
"y. c #140CDD",
"u. c #190DDA",
"i. c #1708D8",
"p. c #1E12DE",
"a. c #210DCE",
"s. c #2412CD",
"d. c #2A19CD",
"f. c #3118C4",
"g. c #220FD0",
"h. c #2511D3",
"j. c #2915D6",
"k. c #2B17D8",
"l. c #2E19DA",
"z. c #311DDE",
"x. c #371CD6",
"c. c #3929CE",
"v. c #2723DA",
"b. c #1B16EB",
"n. c #2216E3",
"m. c #271AE3",
"M. c #2B1CE4",
"N. c #291CE9",
"B. c #271DED",
"V. c #311DE1",
"C. c #211CF2",
"Z. c #3521E2",
"A. c #3925E6",
"S. c #3C28E9",
"D. c #3B27E8",
"F. c #2920F1",
"G. c #3B2BF0",
"H. c #4334CE",
"J. c #493DCB",
"K. c #412DEE",
"L. c #4430EF",
"P. c #4531F2",
"I. c #4935F6",
"U. c #4B37F8",
"Y. c #4D39F9",
"T. c #523EFF",
"R. c #4D41CC",
"E. c #5345CE",
"W. c #665ACE",
"Q. c #6E63C6",
"!. c #736ACC",
"~. c #756BCE",
"^. c #7B72CE",
"/. c #6863D3",
"(. c #5642FF",
"). c #5945FF",
"_. c #8D309A",
"`. c #857DCE",
"'. c #838383",
"]. c #8D8D8D",
"[. c #959595",
"{. c #9B9B9B",
"}. c #A5A5A5",
"|. c #ACACAC",
" X c #B3B3B3",
".X c #BCBCBC",
"XX c #DF8880",
"oX c #D1918B",
"OX c #F38F84",
"+X c #E19D88",
"@X c #DCA29C",
"#X c #EFA79F",
"$X c #C9BAB9",
"%X c #D4BDBB",
"&X c #E0A9A3",
"*X c #F2ABA3",
"=X c #F3B3AC",
"-X c #EFBDB8",
";X c #F1BDB7",
":X c #8C86CD",
">X c #958FCE",
",X c #9A94CE",
"<X c #9F9ACE",
"1X c #9790CE",
"2X c #8A92DA",
"3X c #A29EC9",
"4X c #A5A1CD",
"5X c #AFACCD",
"6X c #A9A6C5",
"7X c #B9AFC2",
"8X c #BFBFCD",
"9X c #B3B1CE",
"0X c #C0BDC5",
"qX c #BFC0CF",
"wX c #B8C4D8",
"eX c #C4C4C4",
"rX c #C6C5CE",
"tX c #CDCDCE",
"yX c #CAC5C5",
"uX c #D8CCC9",
"iX c #CFD1CD",
"pX c #D3D3CE",
"aX c #D7D9CE",
"sX c #DBDDCE",
"dX c #C9D3DA",
"fX c #D3D3D3",
"gX c #D1D7D8",
"hX c #DBDBDB",
"jX c #D8DBD5",
"kX c #E7CCCA",
"lX c #E1D2C3",
"zX c #F3D1CD",
"xX c #F0DAD7",
"cX c #DEE0CE",
"vX c #E2E2DC",
"bX c #D5DEE0",
"nX c #DCE3E3",
"mX c #DDECED",
"MX c #D8E7E8",
"NX c #E4E4E4",
"BX c #E4ECED",
"VX c #ECECEC",
"CX c #E7E6E6",
"ZX c #F4EDEC",
"AX c #F1E6E5",
"SX c #F4F0EF",
"DX c #E2EFF1",
"FX c #E6F2F3",
"GX c #ECF3F3",
"HX c #EDF7F8",
"JX c #EDFAFB",
"KX c #F4F4F4",
"LX c #F4FCFD",
"PX c #FCFCFC",
"IX c #F6F7F8",
"UX c None",
/* pixels */
"UXUXUXUXUXUXUXUXUXUXUXUXUXUXUXUXUXUXUXUXUXUXUXUXUXUXUXUXUXUXUXUXUXUXUXUXUXUXUXUXUXUXUXUXUXUXUXUXUXUXUXUXUXUXUXUXUXUXUXUXUXUXUXUX",
"UXUXUXUXUXUXUXUXUXUXUXUXUXUXUXUXUXUXUXUXUXUXUXUXUXUXUXUXUXUX@ @ @ @ UXUXUXUXUXUXUXUXUXUXUXUXUXUXUXUXUXUXUXUXUXUXUXUXUXUXUXUXUXUX",
"UXUXUXUXUXUXUXUXUXUXUXUXUXUXUXUXUXUXUXUXUXUXUXUXUXUX@ @ @ @ @ @ @ @ @ @ @ @ UXUXUXUXUXUXUXUXUXUXUXUXUXUXUXUXUXUXUXUXUXUXUXUXUXUX",
"UXUXUXUXUXUXUXUXUXUXUXUXUXUXUXUXUXUXUXUXUXUX@ @ @ @ @ @ @ @ @ . @ . @ @ @ @ @ @ @ @ UXUXUXUXUXUXUXUXUXUXUXUXUXUXUXUXUXUXUXUXUXUX",
"UXUXUXUXUXUXUXUXUXUXUXUXUXUXUXUXUXUXUXUX@ @ @ @ @ . . . . @ # $ $ $ # @ .   . . @ @ @ @ UXUXUXUXUXUXUXUXUXUXUXUXUXUXUXUXUXUXUXUX",
"UXUXUXUXUXUXUXUXUXUXUXUXUXUXUXUXUXUX@ @ @ .   . # * ]. XyXjXNXVXCXCXjXfX.X{.- $ .   . @ @ @ @ UXUXUXUXUXUXUXUXUXUXUXUXUXUXUXUXUX",
"UXUXUXUXUXUXUXUXUXUXUXUXUXUXUXUX@ @ @ . . @ -  XjXIXPXPXPXPXPXPXPXPXPXPXPXPXPXVXeX].$   @ @ @ @ UXUXUXUXUXUXUXUXUXUXUXUXUXUXUXUX",
"UXUXUXUXUXUXUXUXUXUXUXUXUXUXUX@ @ @ . @ - pXPXPXPXPXPXPXPXPXPXPXPXPXPXPXPXPXPXPXPXPXCX{.$   . @ @ @ UXUXUXUXUXUXUXUXUXUXUXUXUXUX",
"UXUXUXUXUXUXUXUXUXUXUXUXUX@ @ @ . . - yXPXPXPXPXPXPXIXPXPXPXPXPXPXPXIXPXPXPXIXPXPXPXPXPXNX[.#   @ @ @ UXUXUXUXUXUXUXUXUXUXUXUXUX",
"UXUXUXUXUXUXUXUXUXUXUXUX@ @ @ . $ .XPXPXPXPXIXPXPXIXPXPXIXPXIXPXPXPXPXPXPXPXPXPXIXPXPXPXPXPXjX- . @ @ @ UXUXUXUXUXUXUXUXUXUXUXUX",
"UXUXUXUXUXUXUXUXUXUXUX@ @ . . - NXPXPXIXPXIXPXPXIXIXPXIXPXIXPXIXPXIXIXIXPXIXIXIXIXPXIXPXPXPXPXPX}.@ . @ @ UXUXUXUXUXUXUXUXUXUXUX",
"UXUXUXUXUXUXUXUXUXUX@ @ @ . [.IXPXIXIXIXIXIXIXIXIXIXIXIXIXKXIXIXKXPXIXIXIXIXIXIXIXIXIXIXIXIXIXPXPX.X# . @ @ UXUXUXUXUXUXUXUXUXUX",
"UXUXUXUXUXUXUXUXUX@ @ @ . {.PXPXKXKXKXIXKXKXIXKXKXKXKXIXIXIXLXLXPXLXIXIXIXIXKXIXKXIXKXIXKXIXKXKXIXPXpX$   @ @ UXUXUXUXUXUXUXUXUX",
"UXUXUXUXUXUXUXUX@ @ @ . {.PXPXIXKXKXKXKXKXKXKXKXKXIXPXPXLXIXSXZXZXZXIXLXLXLXLXKXKXSXKXKXKXKXKXKXIXIXPXfX$ . # @ UXUXUXUXUXUXUXUX",
"UXUXUXUXUXUXUXUX@ @   ].PXIXKXKXKXKXKXKXKXKXKXIXLXKXxX=XOX#.o.X.X.X.$.*.*XzXKXLXIXKXKXKXKXKXKXKXKXGXIXPXyX# @ @ @ UXUXUXUXUXUXUX",
"UXUXUXUXUXUXUX@ @   - KXIXKXVXKXVXKXVXKXVXKXJXSX;X*.T D b z D D D S D b D I +.*XAXLXIXVXSXSXVXGXZXKXSXIXPX|.. @ @ UXUXUXUXUXUXUX",
"UXUXUXUXUXUX@ @ . $ hXPXZXVXGXSXVXGXSXVXLXHX-Xo.Z z D H H H H H H H H H J A z z ] *XSXHXSXSXSXSXVXKXVXVXKXIX'.  @ @ UXUXUXUXUXUX",
"UXUXUXUXUXUX@ @ .  XPXGXVXVXVXVXZXVXVXHXVX&.Z z A H H H H H H H H H H H H H H H z z +.xXJXVXBXZXVXVXGXVXVXIXhX% . @ @ UXUXUXUXUX",
"UXUXUXUXUX@ @ . = VXVXVXVXVXVXVXVXVXHXCXO.j V A H A C H A A A H H C H H A A A A A A j ] kXJXBXBXVXVXVXVXVXVXPX}.. @ @ UXUXUXUXUX",
"UXUXUXUXUX@ @ @ 7XIXCXVXVXVXCXCXCXHXNX..j C A A C A H C A Z A C C A C V A A A A A C A k ' kXJXCXVXCXVXCXVXCXGXCX& . @ @ UXUXUXUX",
"UXUXUXUX@ @   = VXVXNXCXCXCXCXCXFXNX .g C C C C C P R H C C C C C C C C C C C C C C C C h L kXFXCXCXAXCXVXCXCXKX|.. @ # UXUXUXUX",
"UXUXUXUX@ @ @ .XSXNXNXNXCXCXCXCXDX@.j A C C C C B P { H C H B B C C C C C b n v v v v n V g ] nXBXNXNXNXCXNXCXVXCX* . @ UXUXUXUX",
"UXUXUX@ @ . = CXCXNXNXCXNXNXNXFX&Xr V R A B B B u H R R I R H C M B B C v l ~ ( _ ) ( N z c h %.DXNXvXNXNXNXNXNXSX}.. @ @ UXUXUX",
"UXUXUX@ @ . {.VXhXNXhXhXNXbXBXhX' g M U H u u l u H R R I H P H l u x f ^ 6.x.N.B.B.N.x.7.~ d V uXBXvXbXbXvXhXNXCXtX$ . # UXUXUX",
"UXUXUX@ @ # $XCXhXbXvXvXhXvXDX@Xr t t V M u t u u P [ R U u u u u n l + N.C.M.Z.z.V.V.M.C.k./ p %.mXNXhXbXvXhXhXNXvX=   @ UXUXUX",
"UXUXUX@ . & gXNXhXhXhXhXvXbXbX| 5 V I H t V V e u Y [ [ I u u t H Y 9.b.M.z.l.l.z.l.z.S.V.M.C.+ F kXnXhXhXhXhXhXhXBX[.. @ @ UXUX",
"UXUX@ @ . '.NXhXhXhXhXhXhXnX%XM y M J Y M H R C H R R [ H e t r n _.C.G.z.k.l.l.j.z.K.K.z.k.m.n.W oXMXhXhXhXhXhXhXCX X@ @ @ UXUX",
"UXUX@ @ . [.NXhXfXfXhXfXfXMXoX5 e w t Y U U [ [ R R R [ H e e a : j.m.z.k.j.k.j.j.L.Y.j.h.j.k.n.;.` vXhXhXhXhXfXfXhX0X$ @ @ UXUX",
"UXUX@ @ @ }.bXfXfXfXfXfXfXbX} s V w t Y [ [ R R R R R R R H w q 2.b.h.k.Z.l.h.z.P.T.I.l.z.k.j.j.t.5.lXhXfXfXfXfXfXjXtX& . @ UXUX",
"UXUX@ @ @  XhXfXfXfXfXfXgXfXG s U t 7 u R [ R R R R R R [ R x ; :.p.h.z.U.l.k.Y.).).K.Z.P.j.g.h.u.8.%XhXfXfXfXfXfXfXfX* . @ @ UX",
"UX@ @ @ $ .XjXfXfXtXfXtXgXyXm 5 A U u w U [ R R R R R R R { K : e.h.h.h.h.Z.Y.(.T.T.z.h.V.j.g.g.t.f.7XjXfXfXtXfXfXfXfX= . @ @ UX",
"UX@ @ @ $ .XfXtXtXtXtXtXgX0Xm 5 C Y H 7 H [ R R R R R R R R f E i.t.h.e.s.U.(.(.T.Y.j.K.T.l.a.g.a.s.6XsXtXtXtXtXtXtXfX= . @ @ UX",
"UX@ @ @ $ .XfXtXiXtXtXtXgX$Xi 4 e e 7 7 P { R R R R R R { R a W n.h.s.e.Z.(.(.(.(.S.j.(.P.a.a.a.a.a.3XsXtXtXtXtXtXfXfX= . @ @ UX",
"UX@ @ . # .XfXtXtXtXtXtXfX7X< 4 7 7 7 t R R R R R R R R R U a + F.k.e.e.S.(.(.Y.(.S.A.(.D.a.a.a.w.s.4XsXtXtXtXtXtXfXfX= . @ @ UX",
"UXUX@ @ #  XfXfXtXtXtXiXpXwXQ 4 7 7 7 H { R R R R R R R t 7 8 >.y.h.e.h.I.(.Y.(.T.T.T.T.T.j.e.a.w.s.9XaXfXtXtXtXtXfXtX* . @ @ UX",
"UXUX@ @ @ |.hXtXtXtXtXtXpXdX0.3 0 7 7 C R R R R R R R B 7 8 ; ;.u.s.e.h.S.(.T.T.T.T.(.T.(.I.K.Z.w.c.8XaXtXtXtXtXtXfXtX% . @ UXUX",
"UXUX@ @ . {.jXtXfXtXtXtXfXfXQ.> 9 7 7 u C H R R R R { H w 9 X i.t.g.a.e.S.(.T.T.T.T.T.(.T.(.T.A.q.J.iXpXtXtXtXiXtXfXyX$ @ @ UXUX",
"UXUX@ @ . ].hXtXtXtXtXtXtXcX2X<.2 8 7 0 7 7 t e J { Y u q , f.u.s.s.e.h.U.(.T.T.T.T.).L.k.Z.j.e.q.!.sXiXtXtXtXtXtXgX X@ @ @ UXUX",
"UXUX@ @ . * fXfXtXtXtXtXtXpX0Xv.o 8 9 7 7 7 1 1 u H e 9 , <.y.a.a.g.j.k.I.(.T.T.T.T.K.s.e.e.e.t.e.6XaXtXtXtXtXtXtXhX{.. @ @ UXUX",
"UXUXUX@ . $ .XgXtXtXfXtXtXfXsX/.r.,.; 9 8 0 7 7 0 9 9 ! ;.y.a.a.a.e.l.U.(.(.T.T.(.I.a.e.a.a.e.q.J.iXpXtXtXtXiXtXfXfX- . @ @ UXUX",
"UXUXUX# @ @ }.hXtXtXtXtXtXtXaX5Xe.r.-.E 6 0 8 8 7 , O M.u.a.a.a.a.l.h.k.A.I.(.(.Y.z.e.a.a.a.a.q.:XsXtXtXtXfXtXtXfXtX% . @ UXUXUX",
"UXUXUX@ @ . - fXfXtXtXtXfXtXfXaX/.q.u.u.;.1.O ,.<.-.u.t.a.a.a.a.e.D.T.z.w.k.Y.(.L.d.a.a.a.a.q.H.rXpXtXfXtXtXtXtXjX}.@ @ @ UXUXUX",
"UXUXUXUX@ @ # 0XjXtXtXtXtXtXtXaXqXc.q.e.y.y.y.y.y.u.e.a.a.a.a.a.a.s.I.T.j.e.g.Z.).T.a.a.a.w.g.3XsXtXtXtXtXtXfXtXhX- . @ @ UXUXUX",
"UXUXUXUX@ @ . '.fXtXfXtXtXtXtXtXcX<Xe.q.s.a.e.t.a.a.a.a.a.a.a.a.a.e.j.Z.l.e.j.l.A.K.h.a.w.q.^.sXtXpXtXtXtXtXtXfX X@ . @ UXUXUXUX",
"UXUXUXUX@ @ @ # .XfXtXtXtXtXtXiXtXsX1Xa.q.s.e.s.a.a.a.a.a.a.a.a.a.a.e.e.a.e.k.z.e.a.a.w.q.!.pXpXtXfXtXtXtXtXfXfX= . @ @ UXUXUXUX",
"UXUXUXUXUX@ @ . '.hXtXtXtXtXtXtXtXpXcX>Xe.q.a.t.a.a.a.a.a.a.a.a.a.a.a.a.a.a.a.a.a.a.w.q.!.aXpXtXtXtXtXtXtXtXhX|.@ @ @ UXUXUXUXUX",
"UXUXUXUXUX@ @ @ @  XgXtXtXtXtXtXtXtXpXsX1Xd.q.e.a.a.a.a.a.a.a.a.a.a.a.a.a.a.a.a.a.q.e.^.aXaXtXfXtXtXtXtXtXfXfX= . @ @ UXUXUXUXUX",
"UXUXUXUXUXUX@ @ . * fXfXtXtXtXtXtXtXtXpXsX9XE.w.q.w.a.a.a.a.a.a.a.a.a.a.a.a.e.q.q.c.<XaXpXtXtXtXtXtXtXtXtXjX[.. @ @ UXUXUXUXUXUX",
"UXUXUXUXUXUX@ @ @ . ].jXtXtXtXtXtXtXtXtXtXaXpX>XR.a.q.q.w.e.t.e.e.t.e.w.q.q.e.c.`.rXsXpXtXtXtXtXtXtXtXtXhX X# @ @ @ UXUXUXUXUXUX",
"UXUXUXUXUXUXUX@ @ @ @ }.hXtXtXtXtXtXtXtXtXtXpXsXfX3X~.H.d.e.w.w.q.w.e.d.c.W.1XtXsXpXtXtXtXtXtXtXtXtXtXjXyX% . @ @ UXUXUXUXUXUXUX",
"UXUXUXUXUXUXUXUX@ @ . # |.hXtXtXyXtXtXtXtXtXtXtXpXsXsXtX9X3X:X`.`.:X,X5XrXaXsXpXtXtXtXtXtXtXtXtXtXtXfXtX=   @ @ UXUXUXUXUXUXUXUX",
"UXUXUXUXUXUXUXUXUX@ @ @ #  XhXtXtXtXtXtXtXtXtXtXtXrXtXpXaXsXsXaXsXsXsXaXpXpXtXtXtXtXtXtXtXtXtXrXtXfXtX= . @ @ @ UXUXUXUXUXUXUXUX",
"UXUXUXUXUXUXUXUXUXUX# @ . $ |.hXfXtXtXtXtXtXtXtXtXtXtXtXtXtXtXtXtXtXtXtXtXyXtXtXtXtXtXtXtXtXtXtXhXeX* . @ @ @ UXUXUXUXUXUXUXUXUX",
"UXUXUXUXUXUXUXUXUXUX@ @ @ . @ [.fXgXtXtXtXtXtXtXtXtXtXtXtXtXtXtXtXtXtXtXtXtXtXtXtXtXtXtXtXtXfXhX X% . @ @ @ UXUXUXUXUXUXUXUXUXUX",
"UXUXUXUXUXUXUXUXUXUXUX@ @ @ @ . - eXhXfXtXtXtXtXtXtXtXtXtXyXtXtXtXtXtXtXtXtXtXtXtXtXtXtXtXjXfX{.# . @ @ @ UXUXUXUXUXUXUXUXUXUXUX",
"UXUXUXUXUXUXUXUXUXUXUXUXUX@ @ @ . $ [.yXfXfXtXtXtXtXtXtXtXtXtXtXtXtXtXtXtXtXtXtXtXtXtXfXfX|.* . . @ # @ UXUXUXUXUXUXUXUXUXUXUXUX",
"UXUXUXUXUXUXUXUXUXUXUXUXUXUX@ @ @ @ . % {.tXjXfXtXtXtXtXtXtXtXtXtXtXtXtXtXtXtXtXfXgXfX X= @ . @ @ @ UXUXUXUXUXUXUXUXUXUXUXUXUXUX",
"UXUXUXUXUXUXUXUXUXUXUXUXUXUXUX@ @ @ @ . . & {..XtXhXfXfXfXpXtXtXtXtXtXfXfXfXjXfXyX}.- @ . @ @ @ @ UXUXUXUXUXUXUXUXUXUXUXUXUXUXUX",
"UXUXUXUXUXUXUXUXUXUXUXUXUXUXUXUXUX@ # @ @ . . # * ].}..XeXtXtXfXtXpXtXyX8X X[.- % @ . @ @ @ @ UXUXUXUXUXUXUXUXUXUXUXUXUXUXUXUXUX",
"UXUXUXUXUXUXUXUXUXUXUXUXUXUXUXUXUXUXUX@ @ @ @ @ . . @ $ % & = = = = * & $ @ . . . @ @ @ @ UXUXUXUXUXUXUXUXUXUXUXUXUXUXUXUXUXUXUX",
"UXUXUXUXUXUXUXUXUXUXUXUXUXUXUXUXUXUXUXUXUX@ @ @ @ @ @ . @ . . . . . . . . @ @ @ @ @ @ UXUXUXUXUXUXUXUXUXUXUXUXUXUXUXUXUXUXUXUXUX",
"UXUXUXUXUXUXUXUXUXUXUXUXUXUXUXUXUXUXUXUXUXUXUXUX@ @ @ @ @ @ @ @ @ @ @ @ @ @ @ @ UXUXUXUXUXUXUXUXUXUXUXUXUXUXUXUXUXUXUXUXUXUXUXUX",
"UXUXUXUXUXUXUXUXUXUXUXUXUXUXUXUXUXUXUXUXUXUXUXUXUXUXUXUXUX@ @ # @ @ @ UXUXUXUXUXUXUXUXUXUXUXUXUXUXUXUXUXUXUXUXUXUXUXUXUXUXUXUXUX",
"UXUXUXUXUXUXUXUXUXUXUXUXUXUXUXUXUXUXUXUXUXUXUXUXUXUXUXUXUXUXUXUXUXUXUXUXUXUXUXUXUXUXUXUXUXUXUXUXUXUXUXUXUXUXUXUXUXUXUXUXUXUXUXUX"
};
