/* XPM */
static char *_____________[] = {
/* columns rows colors chars-per-pixel */
"64 64 256 2",
"   c #085A94",
".  c #275A8F",
"X  c #255C91",
"o  c #2B5D92",
"O  c #305F92",
"+  c #0D649D",
"@  c #12649D",
"#  c #12699F",
"$  c #2E6194",
"%  c #2D6699",
"&  c #2C699D",
"*  c #266A9F",
"=  c #316396",
"-  c #346698",
";  c #35699B",
":  c #3A6C9D",
">  c #0E67A0",
",  c #0E6BA3",
"<  c #066BA4",
"1  c #126BA3",
"2  c #166BA4",
"3  c #0E73AC",
"4  c #0A77AC",
"5  c #1273AB",
"6  c #1775AA",
"7  c #0E7CB3",
"8  c #0B78B1",
"9  c #117DB3",
"0  c #1E7CB3",
"q  c #2A74A9",
"w  c #2F76A9",
"e  c #426F9D",
"r  c #4978A5",
"t  c #527DA7",
"y  c #0D81B5",
"u  c #0D84BB",
"i  c #0E8ABD",
"p  c #0685BC",
"a  c #1385B8",
"s  c #2984B8",
"d  c #3887B7",
"f  c #5A82AB",
"g  c #4489B8",
"h  c #598AB6",
"j  c #4C93BD",
"k  c #5C92B9",
"l  c #4982AE",
"z  c #6B92B9",
"x  c #7397B9",
"c  c #648CB4",
"v  c #0D8CC2",
"b  c #078AC2",
"n  c #188DC2",
"m  c #0E91C5",
"M  c #0D94CA",
"N  c #0D9ACE",
"B  c #0496CB",
"V  c #1299CF",
"C  c #1395CA",
"Z  c #0E9DD1",
"A  c #009ED3",
"S  c #139CD2",
"D  c #348DC1",
"F  c #2796C6",
"G  c #3796C6",
"H  c #2A8FC4",
"J  c #0CA1D4",
"K  c #0AA5D9",
"L  c #02A2D7",
"P  c #14A2D5",
"I  c #1AA6D9",
"U  c #1CABDC",
"Y  c #16A8D9",
"T  c #22A8D9",
"R  c #36ABD6",
"E  c #2CB2DE",
"W  c #33B2DD",
"Q  c #1BB1E1",
"!  c #2BB4E3",
"~  c #2CB7E4",
"^  c #34B6E3",
"/  c #34BAE5",
"(  c #3BBAE4",
")  c #33BDE8",
"_  c #5699C4",
"`  c #499CC9",
"'  c #6A9BC6",
"]  c #729FCE",
"[  c #48A3CD",
"{  c #5AA4CD",
"}  c #4CABD4",
"|  c #46A9D5",
" . c #5AADD5",
".. c #55ADD7",
"X. c #4BB4DB",
"o. c #53B4DB",
"O. c #5BB2DB",
"+. c #59B5DA",
"@. c #69A5CB",
"#. c #74A8CA",
"$. c #6BABD4",
"%. c #79ADD5",
"&. c #64B5DC",
"*. c #69B9DE",
"=. c #79BAD9",
"-. c #43BCE5",
";. c #49BBE4",
":. c #5ABBE1",
">. c #54B9E1",
",. c #69BDE2",
"<. c #75BEE2",
"1. c #7ABFE3",
"2. c #34C2EC",
"3. c #3BC4EC",
"4. c #3AC9EF",
"5. c #3DCCF1",
"6. c #4AC4EA",
"7. c #46C5EA",
"8. c #58C7EA",
"9. c #43CEF2",
"0. c #4ACEF2",
"q. c #45D1F5",
"w. c #4CD3F6",
"e. c #4CD6F8",
"r. c #53D9FA",
"t. c #5BDAFB",
"y. c #56D4F5",
"u. c #51CEF1",
"i. c #6DC2E3",
"p. c #63CDEC",
"a. c #65C6E8",
"s. c #7CC3E4",
"d. c #7CCCEA",
"f. c #75C7E6",
"g. c #76D2ED",
"h. c #63D3F2",
"j. c #63DDFB",
"k. c #6DDEFB",
"l. c #6AD7F4",
"z. c #73D4F1",
"x. c #7CDAF5",
"c. c #78DCF7",
"v. c #6FD2EF",
"b. c #6BE1FD",
"n. c #66E0FE",
"m. c #75E2FD",
"M. c #7BE2FB",
"N. c #7EC4DF",
"B. c #82ABDA",
"V. c #87B8D8",
"C. c #93B9D8",
"Z. c #8EAAC6",
"A. c #A1B7CE",
"S. c #8AB8E2",
"D. c #94BDE9",
"F. c #97BEE6",
"G. c #87C2DD",
"H. c #95C3DF",
"J. c #B8CADC",
"K. c #ABC2D7",
"L. c #82C5E3",
"P. c #83C9E6",
"I. c #8BCAE5",
"U. c #85CDE9",
"Y. c #8AC8E6",
"T. c #94CBE4",
"R. c #9BCDE5",
"E. c #9BC2EC",
"W. c #98C5E9",
"Q. c #83D2ED",
"!. c #8CD3EC",
"~. c #94D4EC",
"^. c #9BD4EB",
"/. c #9DD3E9",
"(. c #83DCF4",
"). c #8ADCF4",
"_. c #86DBF4",
"`. c #94DBF2",
"'. c #9BDDF2",
"]. c #A4CAED",
"[. c #AACEEE",
"{. c #A3C9E8",
"}. c #A4D4E9",
"|. c #ADD2ED",
" X c #AADAED",
".X c #A8D5E9",
"XX c #B1D2EE",
"oX c #B4DCED",
"OX c #BBDCED",
"+X c #B8D4EA",
"@X c #A8CDF1",
"#X c #A3DDF2",
"$X c #ACD7F1",
"%X c #B4D4F0",
"&X c #B9D6F1",
"*X c #BDD9F2",
"=X c #B0DDF0",
"-X c #B4CCE5",
";X c #84E3FC",
":X c #8CE5FB",
">X c #8CE1F7",
",X c #95E1F6",
"<X c #9DE2F6",
"1X c #92E4FA",
"2X c #9BE5F9",
"3X c #9BE9FC",
"4X c #93E8FD",
"5X c #A5E2F5",
"6X c #ACE3F5",
"7X c #A4E6F9",
"8X c #A4EAFB",
"9X c #ACEBFB",
"0X c #AFE7F8",
"qX c #B3E4F4",
"wX c #BCE4F3",
"eX c #B4ECFA",
"rX c #BCEDFA",
"tX c #BBE8F7",
"yX c #B8F1FE",
"uX c #BEE0EF",
"iX c #C5D8E8",
"pX c #C3DCF3",
"aX c #CADFF4",
"sX c #D2DEE8",
"dX c #C9E2EF",
"fX c #DBE3ED",
"gX c #C5E3F2",
"hX c #CCE2F4",
"jX c #C4EAF6",
"kX c #CCEAF6",
"lX c #C3EDFA",
"zX c #CCEEF9",
"xX c #D3E4F5",
"cX c #D8E7F6",
"vX c #D4EAF4",
"bX c #DBEAF6",
"nX c #DDEAF8",
"mX c #D3EAF8",
"MX c #CDF1FC",
"NX c #C4F0FC",
"BX c #D4F2FB",
"VX c #DBF3FB",
"CX c #DFF0F6",
"ZX c #E2ECF4",
"AX c #E3EEF9",
"SX c #E9EFF7",
"DX c #E4F1F7",
"FX c #E4F4FB",
"GX c #EBF4FA",
"HX c #ECF9FD",
"JX c #ECF1F6",
"KX c #F1F6FB",
"LX c #F4FAFC",
"PX c #FDFEFE",
"IX c #C6D1DF",
"UX c None",
/* pixels */
"UXUXUXUXUXUXUXUXUXUXUXUXUXUXUXUXUXUXUXUXUXUXUXUXUXUXUX= ; % & & & % o % O UXUXUXUXUXUXUXUXUXUXUXUXUXUXUXUXUXUXUXUXUXUXUXUXUXUXUX",
"UXUXUXUXUXUXUXUXUXUXUXUXUXUXUXUXUXUXUXUXUXUXUX- & q w s s d D G G D D D 0 w w : : UXUXUXUXUXUXUXUXUXUXUXUXUXUXUXUXUXUXUXUXUXUXUX",
"UXUXUXUXUXUXUXUXUXUXUXUXUXUXUXUXUXUXUXUX- : q s G } &.,.s.<.s.*.1.s.<.,.&...| [ #.k f = UXUXUXUXUXUXUXUXUXUXUXUXUXUXUXUXUXUXUXUX",
"UXUXUXUXUXUXUXUXUXUXUXUXUXUXUXUXUXUX- x K.$.:.P.W././.Y.G.R.R.hXY.=.L.L.1.1.1.<.O.&.-XIXx : UXUXUXUXUXUXUXUXUXUXUXUXUXUXUXUXUXUX",
"UXUXUXUXUXUXUXUXUXUXUXUXUXUXUXUX- x IXPXOX=.T.T.T.^.I.}.KXPXPXPXLX{.d.S.S.1.1.<.<.&....XPXsXx - UXUXUXUXUXUXUXUXUXUXUXUXUXUXUXUX",
"UXUXUXUXUXUXUXUXUXUXUXUXUXUXX t J.PXPXPXDXdX.XvXxXT.}.T.vXPXPXPXPXpXL.Y.d.s.s.<.G.R.Y.+XPXPXPXIXf X UXUXUXUXUXUXUXUXUXUXUXUXUXUX",
"UXUXUXUXUXUXUXUXUXUXUXUXUX= Z.JXPXPXPXPXPXPXvXDXPXZX}./.dXPXPXPXGXI.!.!.U.U.U.<.T.PXPXPXPXPXPXPXLXZ.= UXUXUXUXUXUXUXUXUXUXUXUXUX",
"UXUXUXUXUXUXUXUXUXUXUXUX: K.PXPXPXPXbXoX.XoXH.OXPXGX}.~.KXPXPXPXbXI.^.!.Y.U.U.f.L.KXPXDXPXPXPXPXPXPXJ.e UXUXUXUXUXUXUXUXUXUXUXUX",
"UXUXUXUXUXUXUXUXUXUXo r sXPXPXPXPXOXR.wX XR..XDXCX.XwX}.PXGXvXwX/.~.^.~.!.!.U.d.L.GXPXT.G.vXPXPXPXPXPXfXt UXUXUXUXUXUXUXUXUXUXUX",
"UXUXUXUXUXUXUXUXUXX t fXPXPXPXPXvXR.kXoXOXbXI.oXoXmXwXuXPX.X^. X5X X#X'.~.!.!.U.L.DXPXKX*.s.PXPXPXPXPXPXJXf UXUXUXUXUXUXUXUXUXUX",
"UXUXUXUXUXUXUXUXo t ZXPXPXPXPXPXDX.XoXOXPXPXhXwXHXVXkXoXoXoXjXtXqX=X#X^.~.~.!.U.i.}.hXDXkX .bXPXPXPXPXPXPXJXt UXUXUXUXUXUXUXUXUX",
"UXUXUXUXUXUXUXUXe fXPXPXPXPXPXPXPXLXKXPXPXPXkXvXHXFXFXCXzXMXjXtXqX6X6X#X'.~.Q.~. X+.i.*.=.&.vXPXPXPXPXPXPXPXZXr UXUXUXUXUXUXUXUX",
"UXUXUXUXUXUXUX- IXPXPXPXPXPXPXPXPXPXPXPXPXPXkXkXHXHXFXDXVXBXzXjXtXqX6X#X#X`.U.P.oXI.d.s.DXLXPXPXPXPXPXPXPXPXPXiX: UXUXUXUXUXUXUX",
"UXUXUXUXUXUXo Z.PXPXPXPXPXPXPXPXPXPXPXLXPXPXPXuXHXLXHXFXVXVXvXMXtXtXqX5X#X!. X&XP.PXf.s.PXPXPXPXPXPXPXLXZXPXPXPXA.o UXUXUXUXUXUX",
"UXUXUXUXUXo c PXPXPXPXPXPXPXPXPXPXPXPX}.oXvXoXzXPXLXLXHXFXVXVXMXjXtX0X6X#X`.`.^.~.~.*.DXPXPXPXPXPXPXPXG.O. ..XPXPXz X UXUXUXUXUX",
"UXUXUXUXUX- sXPXLXPXPXPXPXPXPXPXPXPXPXgXCXCXHXPXPXLXLXHXHXVXVXMXzXtXtX6X5X#X!._.g.P.FXPXPXPXPXPXPXPXPX.X} =.ZXPXPXfXe UXUXUXUXUX",
"UXUXUXUXX Z.PXLXPXLXPXPXPXPXPXPXPXDXCXCX.XHXPXPXPXLXLXLXHXVXVXMXzXtXtX0X5X'.,X`.).Q.P.kXPXPXJXbXR.}.GXJX=.DXPXPXPXPXZ.o UXUXUXUX",
"UXUXUXUXr ZXPXLXLXLXPXPXPXPXPXLXGX XjXjXvXLXPXPXPXPXLXHXHXFXVXBXzXlXeX0X7X7X'.`.).d.p.!.PXoXi.L. XT.H..X&.SXLXdXLXPXJXt UXUXUXUX",
"UXUXUXX ' PXKXKXLXPXLXPXKXPX.X.X XvXLXHXLXPXPXPXPXLXLXHXFXFXVXMXlXrXeX0X7X7X'.`.Q. XvXLXGXi.a.a.i.P.<.&...O.&.| OXPXPXA.$ UXUXUX",
"UXUXUX$ @.KXGXKXLXLXLXLXPXJXR.kXBXCXFXHXLXLXPXLXLXLXHXHXVXVXVXMXzXrXeX0X7X#X,X).Q.GXPXPXwXp.v.a.>.>.:.+.>.O...|  .SXvX%.; UXUXUX",
"UXUX= q {.LXKXLXLXLXLXLXvXT./.tXkXBXFXFXHXHXLXHXHXHXHXFXVXVXBXMXlXrXeX0X7X<X,X,Xg.jXPXPX X8.a.i.U.f.o.:.+.| .. .V.GXGXR.l = UXUX",
"UXUX$ d DXGXxXpXvXHXPXoXP.'.qXwXjXMXVXVXFXHXHXHXHXHXHXVXVXBXMXMXlXeX9X9X7X2X,X).(.g.qXkXa.d.hXDXPXDXs.o.o.}.vXbXLXKXKXPXJ.$ UXUX",
"UXUX% d dXhX`  . .dXDXN.!.#X#XqXtXjXMXVXVXFXVXHXVXVXVXVXBXMXMXrXrXeX9X7X2X,X1X)._.x.p.!.wXLXPXPXPXPXPXdXO.hXPXLXHXGXZXGXcXt UXUX",
"UXO w H dX=.F *.+..XdXi.~.~.#X6XqXtXNXMXBXBXVXBXVXVXBXMXMXMXrXyXeXeX8X8X2X1X)._.(.v.'.PXPXPXPXPXPXPXPXPXGXDXKXGXGXSXV.+XKXz . UX",
"UX= q { sXG F O.:.S.oX,.!.!.`.#X6XqXtXrXNXzXMXMXMXMXMXNXyXyXyXyX9X9X7X3X,X:X).(.(.z.qXPXPXPXPXPXLXPXPXLXKXKXHXAXnXFX&X_ xXC.o UX",
"UX= 6 Y.H.a { ..&.&.*.f.d.!.!.`.5X5X0XqXtXtXlXlXlXrXrXrXyXyXeX9X8X3X3X4X1X).(.M.M.8.VXPXPXPXPXPXPXPXKXKXKXGXSXAXnXcXAX_ _ -X= UX",
"UX- 0 @.H.{ cX=.} O.*.i.f.d.!.!.`.<X5X7X0XeXeXeXeXeXyXeXyX8X8X8X3X3X1X:X:X;XM.c.h.^.PXPXPXPXPXLXKXLXKXKXGXSXAXnXcXxXcXC.d +X; UX",
"$ - a s H.ZXpX{ ..+.&.,.i.f.g.!.!.`.<X<X5X7X7X7X8X9X8X8X8X3X3X4X4X4X:X;X(.M.c.h.6XPXPXPXPXPXLXPXPXKXKXGXGXAXAXcXxXxXaXpXg g : UX",
"= & 0 0 F.SX=.a } ..+.+.i.i.f.g.d._.).`.,X,X<X2X3X3X3X3X3X4X4X4X:X;X;XM.M.M.j.'.PXPXPXPXPXPXPXPXKXKXGXSXAXnXcXxXaXpXpXaXC.' t o ",
"= & 0 6 ' xXaXG G } ..+.+.a.a.f.g.g.(.(.).>X>X,X1X1X1X>X4X;X:X;X;XM.M.c.k.c.y.7XPXPXPXPXLXPXKXKXKXGXGXAXnXcXxXaXaXpXpX&XpXpX' o ",
"O * 6 0 5 j cX$.a | } X.+.:.a.a.f.g.g.g.x.M.>XM.;X;X;X;XM.;XM.M.m.m.m.k.k.k.y.kXPXPXPXPXPXKXLXKXGXSXAXAXcXxXaXaXpXpXpX%X%X&Xc o ",
"= * 6 2 6 6 -X_ y d | } X.o.+.8.p.p.v.v.z.g.c.c.M.M.c.M.m.m.m.b.m.b.k.k.j.j.h.VXPXKXPXKXPXKXKXGXGXFXnXcXxXxXaXpX*X&X&X%X%X&X' o ",
"O * 5 2 2 6 K.j 4 a G [ | +.+.>.:.a.p.p.h.l.l.l.l.k.k.b.b.n.n.n.n.n.n.t.t.t.0.jXPXPXLXPXKXKXGXGXAXnXnXxXaXaXpX*X*X&X%X%X%X%Xz o ",
"O * 5 2 2 1 #.+Xj $.-X.X[ R R X.;.6.8.p.p.h.h.h.l.j.l.j.j.n.n.n.n.t.t.t.t.t.9.'.PXLXKXKXKXGXGXAXnXnXxXhXaXpXpX&X&X&X%XXXXX%Xh o ",
"O * 7 2 # 2 # @.dXxXbXnX.X .&.X.X.;.;.8.8.u.u.h.y.y.t.t.t.t.t.r.r.r.r.r.y.w.9.tXPXKXLXKXGXSXAXAXcXxXxXaXpXpX*X&X%X%X%XXX%XS.* - ",
"O & 9 2 @ @ # + %.xXpXhXbXvXAX*.R ;.;.6.6.6.u.u.u.y.y.e.r.r.r.r.r.e.r.e.w.w.9.wXPXKXGXGXGXSXnXnXxXxXaXpX*X*X&X%XXXXX|.[.$XB.% = ",
"- $ 7 8 1 @ @ + k xXpXaXaXxXAX*XX.R ;.-.7.7.7.7.0.w.w.w.e.e.e.e.e.e.q.w.w.q.9.3.6XKXGXSXDXnXvXvXxXcXhX*X*XOX%X%X%X[.[.[.@X{.- UX",
"UX- 9 7 1 # @ @ V.gXpXaXaXxXxXAXuXR R W X.3.3.7.7.9.0.9.q.5.q.5.q.q.q.q.9.4.7.3./ wXGXnXnXZXbXvXaX$.H.OXXX%X%XXX[.[.[.].@XV.- UX",
"UXO 0 v 3 1 @ ' pX&X*XpXaXaXxXxXbXvXCX/.W 3.( 3.3.3.4.9.5.5.5.5.5.5.4.4.4.3.3.3./ X.SXDXSX&XoXuX .4 s d g |.%X[.[.[.].].@X' o UX",
"UXo q M 7 3 2 F.*X&X*X*XpXpXaXxXbXCXDXJXo.W W W 3.2.3.3.4.4.4.4.4.4.4.4.3.3./ 2./ ! ,./.*.F F s 7 a 4 < @.XX[.[.[.].].E.].h o UX",
"UXO ; V v 8 < #.*X%X&X&X*XpXpXaXhXcXcXSXT.I E ^ ^ ) ) 2.2.2.2.2.2.2.2.2.2.2.W / E E P V N i i y 9 9 5 2 E.%X].@X].E.E.].S.; $ UX",
"UXUX= n Z v 4 g &X[.%X%X&X*XpXpXdXxXxXZXxXR V Y U ! ^ ~ ~ / ) ) 2.2.2.E 2.E E U Y P N C i i i a 9 5 5 > _ XX].].].E.D.].' X UXUX",
"UXUXO q Y M 7 8 D.XXXXXX%X&X*XpXpXaXxXxXnXxXvXi.A A K K Q Q Q Q Q Q Y Y Y K J J Z Z C i i a y y 6 1 2 @   ' @X].E.E.F.E.h o UXUX",
"UXUX- $ T J m 8 _ &X[.XX%X%X&X&XpXpXaXhXxXvXSXZX}.~.:.Z L K K K K K K L J J Z N N N i i a y 4 5 5 1 @ @   t @XE.E.E.D.S.- % UXUX",
"UXUXUXo s Q S b H E.[.[.XXXX%X%X&X*XpXaXhXxXxXnXGXGXJX^.R S J J K J J J N N N N i i a a y y 5 5 1 > @ @   _ ].D.D.D.D.k o UXUXUX",
"UXUXUX$ - R U S p { XX].@X[.XX%X%X&X*XpXaXaXxXxXxXcXZXSXvX+XT N Z N N N N M m i i i y y 4 5 4 , > @ >   2 S.E.D.D.D.S.; o UXUXUX",
"UXUXUXUXo g ) Y M b $.XX].[.[.XX%X%X%X&X*XpXaXhXxXxXcXxXbXvXC M M M M m i i i i a y y y 5 3 # # + + @ + _ E.D.D.D.].h o UXUXUXUX",
"UXUXUXUX- O } ) I M n $.@X[.[.[.[.$X%X%X&X&XpXpXaXhXaXxXcX .b v i i i i i i p y a y 5 , 5 # # + + + > , $.].D.D.D.B.- - UXUXUXUX",
"UXUXUXUXUXo r 8.^ I Z p { E.].].[.[.[.XX%X%X&X*XpXpXpXaX$.p u u u u u u 9 9 8 8 8 3 3 1 > > > > + > , 8 %.D.D.D.D.r % UXUXUXUXUX",
"UXUXUXUXUX= o j h.^ U Z v S.].].].[.@X[.[.XXXX%X%X&XpXW.8 7 9 7 7 7 7 7 7 7 3 3 5 , 1 > > + > > > 5 7 b O.D.D.D._ X UXUXUXUXUXUX",
"UXUXUXUXUXUX= o @.h./ T V $.].E.].].].].[.[.[.[.XXXX*X@.4 3 3 8 8 8 3 3 3 3 3 1 , 1 2 > > > > , 8 7 v M | D.D.] O ; UXUXUXUXUXUX",
"UXUXUXUXUXUXUX= & =.v.( U :.].E.E.E.].].].[.[.[.@X@XpX_ , 5 5 3 5 5 5 , 3 1 , , > > > > > > 3 8 u M S Y >.].%.; O UXUXUXUXUXUXUX",
"UXUXUXUXUXUXUXUX$ ; N.x.-.;.D.D.E.{.E.].].E.].@X[.@XF.w , 1 , , 1 , , > , , > > > , , , 3 8 y v M I ! ( S.S.: o UXUXUXUXUXUXUXUX",
"UXUXUXUXUXUXUXUXUXo : L.:X8.D.D.D.E.F.E.E.E.].S.g d 6 > > , > , + > > , , 1 > 1 , , 3 8 7 i M S U ! 6.d.%.; $ UXUXUXUXUXUXUXUXUX",
"UXUXUXUXUXUXUXUXUXUXO ; =.1XY.D.D.D.E.E.E.D.@XD < < < 1 , , , , , 1 , , , , 3 3 8 7 u v M P U E -.h.).=.; o UXUXUXUXUXUXUXUXUXUX",
"UXUXUXUXUXUXUXUXUXUXUXo O #.'.E.D.D.D.D.E.D.%.n u 9 9 8 8 3 3 3 3 8 3 8 8 8 7 7 v m V S Y E 7.8.(.2X%.$ o UXUXUXUXUXUXUXUXUXUXUX",
"UXUXUXUXUXUXUXUXUXUXUXUX= o h H.E.D.D.D.D.>.P S C M m v u u y u u u v v v v C C S I T ) 6.p.(.8X^.h o & UXUXUXUXUXUXUXUXUXUXUXUX",
"UXUXUXUXUXUXUXUXUXUXUXUXUX- o ; ' D.E.D.f.8.6.( ! T T S S S S V V S S S S T T ! ^ 7.8.v._.8X6X%.: X ; UXUXUXUXUXUXUXUXUXUXUXUXUX",
"UXUXUXUXUXUXUXUXUXUXUXUXUXUX- $ o e ' Y.8X2X).z.p.8.6.-.( ( W / ^ ^ ^ ( -.6.>.h.z.>X<XeX6XV.l o o UXUXUXUXUXUXUXUXUXUXUXUXUXUXUX",
"UXUXUXUXUXUXUXUXUXUXUXUXUXUXUXUX- O o r #.$XeX9X7X`.).Q.x.z.z.v.v.v.v.z.x.).`.7X9XeX X%.l o o = UXUXUXUXUXUXUXUXUXUXUXUXUXUXUXUX",
"UXUXUXUXUXUXUXUXUXUXUXUXUXUXUXUXUXUX= o o ; f V.^.0XeXyXeXeX9X9X9X9X9XeXyXeX0X}.V.h ; o o - UXUXUXUXUXUXUXUXUXUXUXUXUXUXUXUXUXUX",
"UXUXUXUXUXUXUXUXUXUXUXUXUXUXUXUXUXUXUXUX- $ o o - r h #.V.G.H.R.R.H.G.V.#.h r - X o $ - UXUXUXUXUXUXUXUXUXUXUXUXUXUXUXUXUXUXUXUX",
"UXUXUXUXUXUXUXUXUXUXUXUXUXUXUXUXUXUXUXUXUXUXUX- o o . o o $ $ $ - = $ o o X o $ ; UXUXUXUXUXUXUXUXUXUXUXUXUXUXUXUXUXUXUXUXUXUXUX",
"UXUXUXUXUXUXUXUXUXUXUXUXUXUXUXUXUXUXUXUXUXUXUXUXUXUXUXUX$ - = = $ $ $ = UXUXUXUXUXUXUXUXUXUXUXUXUXUXUXUXUXUXUXUXUXUXUXUXUXUXUXUX"
};
