/* XPM */
static char *_____________[] = {
/* columns rows colors chars-per-pixel */
"16 16 206 2",
"   c #0E5F98",
".  c #01639F",
"X  c #07609C",
"o  c #01679F",
"O  c #0667A2",
"+  c #0469A5",
"@  c #1866A0",
"#  c #1169A1",
"$  c #0D78AF",
"%  c #1371A8",
"&  c #1274AB",
"*  c #1871A8",
"=  c #0679B4",
"-  c #2670A6",
";  c #2374A8",
":  c #2076AC",
">  c #2A7AAD",
",  c #4273A1",
"<  c #4772A4",
"1  c #4278A6",
"2  c #4F7BA5",
"3  c #477BAB",
"4  c #487BAC",
"5  c #507FA8",
"6  c #567FA8",
"7  c #0E82B7",
"8  c #0B85B9",
"9  c #1086BD",
"0  c #2182B4",
"q  c #2480B6",
"w  c #4684AE",
"e  c #4882AF",
"r  c #4686B4",
"t  c #5794BE",
"y  c #6393BD",
"u  c #0E90C4",
"i  c #0092C8",
"p  c #119CCE",
"a  c #208EC1",
"s  c #1CADDC",
"d  c #23A4D6",
"f  c #31A5D2",
"g  c #3DB1DD",
"h  c #1FB5E3",
"j  c #23B6E4",
"k  c #35B6E0",
"l  c #35BAE4",
"z  c #4F9AC8",
"x  c #559EC8",
"c  c #609AC1",
"v  c #6B9EC0",
"b  c #6D9EC1",
"n  c #6A98C4",
"m  c #6E9BC7",
"M  c #7C9FC1",
"N  c #41A4CE",
"B  c #55AFDC",
"V  c #40B2DD",
"C  c #44B6DF",
"Z  c #4EB2D9",
"A  c #50B3DB",
"S  c #60A5CE",
"D  c #71A9CA",
"F  c #72AACA",
"G  c #6CABD0",
"H  c #68AFD0",
"J  c #6BADD2",
"K  c #7AA4D2",
"L  c #72AED1",
"P  c #7FA9D0",
"I  c #7DADD6",
"U  c #76AEDC",
"Y  c #7DAFDC",
"T  c #6EB4D8",
"R  c #63B8DD",
"E  c #74B6DC",
"W  c #44BCE2",
"Q  c #4BBAE2",
"!  c #5BBEE1",
"~  c #6BBDE0",
"^  c #79BEE8",
"/  c #3BC6ED",
"(  c #3BC8EF",
")  c #43D0F4",
"_  c #45D1F5",
"`  c #5ED1F1",
"'  c #51D9FB",
"]  c #5FDDFC",
"[  c #62C2E4",
"{  c #74C1E0",
"}  c #74C0E1",
"|  c #75C2E5",
" . c #6FDAF6",
".. c #62D9F8",
"X. c #7BD5F0",
"o. c #7BDDF8",
"O. c #73E1FD",
"+. c #82A1C0",
"@. c #82AACF",
"#. c #97B0C9",
"$. c #9FB2C9",
"%. c #9BB4CC",
"&. c #9FB6CE",
"*. c #ACBFD4",
"=. c #85BCE6",
"-. c #91C1DD",
";. c #8FCCE7",
":. c #8FCEE8",
">. c #8ECEE9",
",. c #98C8E2",
"<. c #9BC2EA",
"1. c #8DD1EB",
"2. c #89D3ED",
"3. c #96D2EA",
"4. c #97D8EF",
"5. c #9BD8EF",
"6. c #87DEF6",
"7. c #93DDF4",
"8. c #A8CCEA",
"9. c #ACCCEB",
"0. c #AACAED",
"q. c #B3CFEE",
"w. c #A5D5EB",
"e. c #AED5EB",
"r. c #AEDBED",
"t. c #BDD3E3",
"y. c #B1D0EC",
"u. c #B1DBED",
"i. c #B6D9EC",
"p. c #BBDCEC",
"a. c #A7C9F2",
"s. c #ACD0F0",
"d. c #A4DCF0",
"f. c #A5DCF0",
"g. c #ABDDF0",
"h. c #AFDDF0",
"j. c #B2D3F1",
"k. c #B5D5F1",
"l. c #B8D7F3",
"z. c #B3DEF0",
"x. c #BFDBF4",
"c. c #81E0F8",
"v. c #84E5FD",
"b. c #8AE3FA",
"n. c #90E1F7",
"m. c #9CE8FC",
"M. c #A0E0F4",
"N. c #A6E2F5",
"B. c #ADECFC",
"V. c #B6E7F7",
"C. c #BAE6F5",
"Z. c #B5ECFB",
"A. c #B9EBF9",
"S. c #BBEAF8",
"D. c #BAEEFB",
"F. c #BDECF9",
"G. c #C6D5E4",
"H. c #C1D7EF",
"J. c #C1DAEF",
"K. c #D1DFEB",
"L. c #C0DAF2",
"P. c #C2DCF4",
"I. c #C0E0F1",
"U. c #C6E7F4",
"Y. c #C9E9F6",
"T. c #CFE9F5",
"R. c #CFEFF9",
"E. c #D0E2F0",
"W. c #D6E7F1",
"Q. c #D0E3F5",
"!. c #D3E2F5",
"~. c #D7E6F7",
"^. c #DEE7F7",
"/. c #D1E9F4",
"(. c #D1EAF5",
"). c #D5EEF7",
"_. c #D9E8F6",
"`. c #CFF2FC",
"'. c #D6F1FA",
"]. c #DCF0F8",
"[. c #DDF4FC",
"{. c #E2E8EF",
"}. c #E0EBFA",
"|. c #E4EFF9",
" X c #EEF3F7",
".X c #E3F2F9",
"XX c #E4F2F8",
"oX c #E2F6FC",
"OX c #E9F8FD",
"+X c #EEF9FC",
"@X c #F4F7F9",
"#X c #F3F6FD",
"$X c #F0F9FB",
"%X c #F3F9FC",
"&X c #F2FAFC",
"*X c #F3FAFC",
"=X c #F5F9FC",
"-X c #F8FBFC",
";X c #FBFAFD",
":X c #F8F9FE",
">X c #FDFBFC",
",X c #FBFCFD",
"<X c #F9FDFE",
"1X c #FCFDFE",
"2X c #FFFFFF",
"3X c None",
/* pixels */
"3X3X3X3X3Xt x G S z c 3X3X3X3X3X",
"3X3X3X#.K.p.u.$Xh.| i.{.%.3X3X3X",
"3X3X&.@X].(.(.U.f.1.r.(.>X*.3X3X",
"3X+. X2X=X.X+X'.V.4.3.=X&XW.$.3X",
"3XG.2XXX).&X<X[.F.7.C.g.} ;.t.3X",
"e ,.I.f.R.OXoX`.Z.b.d.Y.z.w.E.M ",
"r T R 2.N.A.D.B.m.o.A.2X2X:XJ.y ",
"- L N ! X.6.b.v.O.c.>X$X|.Q.P.@.",
"@ > -.} ) ` ..] '  .:X#X}.L.l.@.",
"* : J.~.-.l ( _ _ / 5.e.J 8.s.n ",
"- a 9.P._.;.g h j s p 8 o I <.4 ",
"3Xa B y.k.E._.B i u 7 %   Y K 3X",
"3X1 f ^ 9.j.y.7 $ & # X 9 U < 3X",
"3X3Xw E a.=.q O O + = d A 3 3X3X",
"3X3X3X, m E C V g Q [ H 2 3X3X3X",
"3X3X3X3X3Xe b D D v 6 3X3X3X3X3X"
};
