/* XPM */
static char *_____________[] = {
/* columns rows colors chars-per-pixel */
"32 32 256 2",
"   c #1A4E87",
".  c #085C96",
"X  c #195790",
"o  c #1D5990",
"O  c #25598E",
"+  c #295A8F",
"@  c #31598C",
"#  c #2D5E91",
"$  c #305F93",
"%  c #0C639C",
"&  c #10649D",
"*  c #2B669B",
"=  c #2D6A9D",
"-  c #2E6093",
";  c #326395",
":  c #336698",
">  c #356B9D",
",  c #38699A",
"<  c #0E67A0",
"1  c #0F6BA4",
"2  c #0D6FA8",
"3  c #036EA8",
"4  c #116AA3",
"5  c #186FA7",
"6  c #0F72AA",
"7  c #0E79AE",
"8  c #0370AA",
"9  c #1272AA",
"0  c #1978AE",
"q  c #0C7DB4",
"w  c #097BB3",
"e  c #127BB1",
"r  c #2A6DA2",
"t  c #3D6EA0",
"y  c #2E7AAC",
"u  c #2D77AC",
"i  c #3875A6",
"p  c #2B7EB2",
"a  c #327EB2",
"s  c #4876A5",
"d  c #547EA8",
"f  c #0C83B9",
"g  c #0A84B9",
"h  c #1082B7",
"j  c #1186BA",
"k  c #1A85B8",
"l  c #278DBD",
"z  c #3D84B5",
"x  c #3886B7",
"c  c #5283AE",
"v  c #5E84AC",
"b  c #4889B7",
"n  c #5B8BB4",
"m  c #5787B6",
"M  c #5B93BD",
"N  c #6086AD",
"B  c #6389B0",
"V  c #6E91B5",
"C  c #6B9DBF",
"Z  c #7B9BBC",
"A  c #7396B8",
"S  c #058BC1",
"D  c #0C8DC5",
"F  c #018FC8",
"G  c #0E91C5",
"H  c #0C95CC",
"J  c #0B98CE",
"K  c #1196CA",
"L  c #0B9DD1",
"P  c #079DD4",
"I  c #169FD3",
"U  c #3091C1",
"Y  c #08A4D8",
"T  c #14A0D4",
"R  c #17A8D7",
"E  c #13ABDC",
"W  c #1AA5D8",
"Q  c #1DB0DF",
"!  c #3DA0CC",
"~  c #29AEDE",
"^  c #26ADDA",
"/  c #36A5D7",
"(  c #3BB4DD",
")  c #2DBAE6",
"_  c #2BB4E0",
"`  c #34BFE9",
"'  c #38BAE4",
"]  c #4897C6",
"[  c #499BC7",
"{  c #5898C2",
"}  c #6C97C7",
"|  c #6A9CCA",
" . c #41A1CF",
".. c #5EA3CA",
"X. c #47A5D3",
"o. c #44AAD3",
"O. c #4DACD5",
"+. c #58A5D3",
"@. c #45B3DB",
"#. c #5DB5DD",
"$. c #59B9DD",
"%. c #68A5C7",
"&. c #73A3C5",
"*. c #7FA6C5",
"=. c #64AAD6",
"-. c #69AFD0",
";. c #79ABD3",
":. c #67B1D7",
">. c #6BB3D6",
",. c #64B4DB",
"<. c #67BDDE",
"1. c #74BBDD",
"2. c #7AB8D8",
"3. c #42BFE7",
"4. c #4BBBE4",
"5. c #63BCE1",
"6. c #75B7E1",
"7. c #33C1EA",
"8. c #3CC5EC",
"9. c #3DC8EF",
"0. c #3CCBF1",
"q. c #42C6EC",
"w. c #40C8EF",
"e. c #4EC4EA",
"r. c #54CAED",
"t. c #5BCCED",
"y. c #59C3E5",
"u. c #45CEF2",
"i. c #55CDF1",
"p. c #5DCEF1",
"a. c #46D2F6",
"s. c #48D2F5",
"d. c #54D7F8",
"f. c #54D9FA",
"g. c #5AD7F7",
"h. c #66C7E7",
"j. c #75C3E2",
"k. c #7CC3E4",
"l. c #74CAEB",
"z. c #78C6E9",
"x. c #7CD2EE",
"c. c #72D3EF",
"v. c #60CFF1",
"b. c #66D4F2",
"n. c #6CD5F4",
"m. c #6CD9F7",
"M. c #62DEFD",
"N. c #6BDEFB",
"B. c #7ADCF6",
"V. c #73D8F4",
"C. c #6FE0FC",
"Z. c #75E3FE",
"A. c #7EE1FB",
"S. c #809FBE",
"D. c #8DA8C4",
"F. c #9BB4CD",
"G. c #89BCD7",
"H. c #8CB9DD",
"J. c #86B4D8",
"K. c #93BCDE",
"L. c #A2BAD2",
"P. c #8EB9E6",
"I. c #92BCE3",
"U. c #95BCE8",
"Y. c #8BC1DE",
"T. c #A7C5DB",
"R. c #BBCEDF",
"E. c #82C6E3",
"W. c #86C9E7",
"Q. c #8ECAE3",
"!. c #8ACEE9",
"~. c #80CFEB",
"^. c #95CBE4",
"/. c #9ACDE6",
"(. c #9DC3EC",
"). c #85D1EB",
"_. c #8BD1EA",
"`. c #9BD2E7",
"'. c #93D6EE",
"]. c #9CD4EB",
"[. c #9AD5EB",
"{. c #9EC6F1",
"}. c #82DCF5",
"|. c #8BDCF4",
" X c #84DFF8",
".X c #95DCF3",
"XX c #9BDCF1",
"oX c #9BD2F1",
"OX c #A5CAED",
"+X c #ABCEED",
"@X c #A8CAE7",
"#X c #A4D7EB",
"$X c #ADD4EB",
"%X c #A2DAEF",
"&X c #ACD9ED",
"*X c #B5D3ED",
"=X c #B2DBEE",
"-X c #BDDDEF",
";X c #ABCFF1",
":X c #A2C8F2",
">X c #ADD1F1",
",X c #A3DDF1",
"<X c #B4D4F1",
"1X c #B9D7F1",
"2X c #B6DFF0",
"3X c #BCDAF2",
"4X c #8FE0F7",
"5X c #85E3FB",
"6X c #8DE5FB",
"7X c #94E6FB",
"8X c #9BE6FA",
"9X c #98E5F9",
"0X c #A3E2F5",
"qX c #ACE3F5",
"wX c #A7EAFC",
"eX c #AEEAFB",
"rX c #A5E6F8",
"tX c #B2E3F3",
"yX c #BBE4F4",
"uX c #B3EAFA",
"iX c #BDEFFC",
"pX c #BCE8F7",
"aX c #C7D4E2",
"sX c #D3DEE9",
"dX c #C3DCF4",
"fX c #C9DFF4",
"gX c #C0DCF8",
"hX c #C3E1EF",
"jX c #C8E3EF",
"kX c #C3E3F2",
"lX c #CDE4F4",
"zX c #CDE9F5",
"xX c #C3EDFA",
"cX c #CEEEF9",
"vX c #D2E5F5",
"bX c #D8E6F7",
"nX c #D3EAF5",
"mX c #DDECF6",
"MX c #DDEAF8",
"NX c #C4F0FC",
"BX c #CCF1FC",
"VX c #D5F2FB",
"CX c #DDF3FB",
"ZX c #E9EEF3",
"AX c #E3EDFA",
"SX c #EAEFFA",
"DX c #E6ECF2",
"FX c #EDF1F5",
"GX c #E4F3FA",
"HX c #EBF4FA",
"JX c #EDF9FD",
"KX c #E5F8FD",
"LX c #F3F6FB",
"PX c #F5FAFD",
"IX c #FDFEFE",
"UX c None",
/* pixels */
"UXUXUXUXUXUXUXUXUXUXUXUXr u a a x a u r UXUXUXUXUXUXUXUXUXUXUXUX",
"UXUXUXUXUXUXUXUXUXv M ] :.1.E.^.k.1.,.+...*.N UXUXUXUXUXUXUXUXUX",
"UXUXUXUXUXUXUXUXF.FXjX=X=X`.HXIXnXW.W.k.k.$XFXL.UXUXUXUXUXUXUXUX",
"UXUXUXUXUXUXB sXIXJXlXnXHX#XHXIX3X!.!.j.hXPXPXIXsXV UXUXUXUXUXUX",
"UXUXUXUXUXA FXIXjX#X$X=XzXyXmXtX%XXX'.z.-XHX^.PXIXFXZ UXUXUXUXUX",
"UXUXUXUXV LXIXIXCXmXIXjXCXnXkXyXqX,X'.).W.#XY.GXIXIXLXZ UXUXUXUX",
"UXUXUXd DXIXIXIXIXIXIXnXHXKXCXcXyXqXXX`.&Xk.GXIXIXPXPXZXv UXUXUX",
"UXUXUXR.IXIXIXIXIXCXjXGXPXPXCXVXxXtXXX.X_.zXIXIXIXlX,.PXaXUXUXUX",
"UXUXS.IXPXIXIXIXmXzXCXIXIXJXKXVXxXuXrX.Xx.%XJX&X&X=X$XPXIXD.UXUX",
"UXX T.IXLXIXLX&XzXKXPXIXIXJXKXVXxXuXrX|.0XIXXX4.<.,.#.X.kXR.UXUX",
"UXi lXAXFXGX#XtXVXGXJXJXJXKXCXBXiXeX0X|.XXCX~.#X=X5.#.^.nXmXn UX",
"UXz $XX./.&X).qXpXcXCXCXCXVXBXNXuXrX8X4Xc.XXJXIXIXGXjXIXSXMXL.UX",
"o { :.! 1.k.).XX0XuXxXBXNXNXiXeXwX8X7X5Xn.GXIXPXPXIXLXAXAXK.J.s ",
"* x @XY.O.h.l.)..X0XrXeXeXeXwX8X8X6X5Xm.qXIXIXIXPXLXAXMXMX*XM t ",
"* 0 @X2.! #.<.l.x.|.4X.X9X9X7X7X5X5XN.}.IXIXIXPXLXSXAXvXfXdXK.d ",
"* 9 b J.k o.$.y.h.c.B.A.A.A.Z.Z.Z.m.M.8XIXPXPXLXHXMXvXkX3X1X1Xv ",
"* 5 5 ;.[ 2.o.@.y.t.b.n.N.N.f.C.f.M.f.}.IXLXLXHXMXbXlX3X1X<X+Xd ",
"* 0 & y *XMX=X6.( e.r.r.g.f.f.f.f.f.a.}.IXHXAXmXbXvX3X1X<X<XI.r ",
"* e 4 . K.lXbXbX<.( q.q.w.s.a.a.a.a.u.8.%XLXGXGX*X@X*X*X+X;XK., ",
"$ k 3 b dX-XdXvXmXhX( ' q.w.0.0.0.0.8.` ' &XQ.>.l 0 H.1XOX;X;.# ",
"UXp S x 1X<X3XfXlXSX6.R Q ) 7.7.7.` ) _ W I g g q 1 H.;X(.:Xm UX",
"UX> T w I.<X<X1XdXvXMX=X$.^ Y E E E R Y J j j h 9 % i :X(.P.t UX",
"UX@ U P [ <X+X<X1XdXlXAXHXlXj.T P J J H j j h 6 & . b {.{.} UXUX",
"UXUXt _ H =.+X;X*X*X1XdXfXMX-XG G D j g j 7 2 & & & ;.(.P.t UXUX",
"UXUXUXb 8.F =.+XOX+X*X<X1X*XU w j q q 7 6 1 4 % 1 q 6.:Xd UXUXUX",
"UXUXUX# ..9./ OXOXOXOX+X3XP.8 9 9 9 2 2 1 & < 1 f J z.} # UXUXUX",
"UXUXUXUX$ -.n.P.(.(.:XU.;.z 1 4 1 1 < < 1 2 q D R i.| # UXUXUXUX",
"UXUXUXUXUX# %.oX(.U.U.+.8 3 1 2 1 2 6 7 f D T 8.B.%.# UXUXUXUXUX",
"UXUXUXUXUXUX# c P.{.l.~ I K D D D D H I ~ e.A._.m # UXUXUXUXUXUX",
"UXUXUXUXUXUXUXUX: n Q.8X5Xm.v.r.i.p.V.5X8X^.| , UXUXUXUXUXUXUXUX",
"UXUXUXUXUXUXUXUXUXUX: c &.G.^.`./.^.G.&.m : UXUXUXUXUXUXUXUXUXUX",
"UXUXUXUXUXUXUXUXUXUXUXUX  + ; : : ; O   UXUXUXUXUXUXUXUXUXUXUXUX"
};
