/* XPM */
static char *bitcoin__[] = {
/* columns rows colors chars-per-pixel */
"16 16 160 2",
"   c #414141",
".  c #424242",
"X  c #444444",
"o  c #454545",
"O  c #464646",
"+  c #474747",
"@  c #484848",
"#  c #4A4A4A",
"$  c #575757",
"%  c #585858",
"&  c #5A5A5A",
"*  c #5B5B5B",
"=  c #606060",
"-  c #616161",
";  c #626262",
":  c #626263",
">  c #6E6E6E",
",  c #6F6F6F",
"<  c #747474",
"1  c #767676",
"2  c #797979",
"3  c #7A7A7A",
"4  c #7B7B7B",
"5  c #7D7D7D",
"6  c #A11033",
"7  c #DC1B00",
"8  c #E2200A",
"9  c #EB2F0C",
"0  c #E32710",
"q  c #E32F1A",
"w  c #EA2F1A",
"e  c #EE3018",
"r  c #E8371D",
"t  c #F83815",
"y  c #F03B1E",
"u  c #DA3A39",
"i  c #E33620",
"p  c #EC3823",
"a  c #ED3C27",
"s  c #EF3E2A",
"d  c #F04029",
"f  c #FF582E",
"g  c #F94C37",
"h  c #FF513A",
"j  c #FD503C",
"k  c #FF593C",
"l  c #A3174E",
"z  c #BD2C41",
"x  c #B62B4E",
"c  c #89267B",
"v  c #FB7352",
"b  c #D56365",
"n  c #C17373",
"m  c #D37E73",
"M  c #E57163",
"N  c #EC786A",
"B  c #3F0CA5",
"V  c #450089",
"C  c #5D1186",
"Z  c #4B12AE",
"A  c #1000CF",
"S  c #1200CE",
"D  c #0900D9",
"F  c #190BD5",
"G  c #1302DB",
"H  c #1C06DD",
"J  c #1F0ADA",
"K  c #2C0FC4",
"L  c #210DD0",
"P  c #2B18DA",
"I  c #3E2EC8",
"U  c #3A37DE",
"Y  c #1E13E1",
"T  c #2410E2",
"R  c #2418E5",
"E  c #231BF0",
"W  c #3B27E9",
"Q  c #3127F7",
"!  c #4333CF",
"~  c #563DC0",
"^  c #4230F3",
"/  c #4834F5",
"(  c #4837FD",
")  c #533FFD",
"_  c #513EFE",
"`  c #675BCD",
"'  c #685DCE",
"]  c #6A61CC",
"[  c #7969C7",
"{  c #959595",
"}  c #999999",
"|  c #9D9D9D",
" . c #A491BB",
".. c #A0A0A0",
"X. c #A1A1A1",
"o. c #A6A6A6",
"O. c #A8A8A8",
"+. c #ABABAB",
"@. c #ABABAC",
"#. c #AFAFAF",
"$. c #B0B0AF",
"%. c #AFAFB0",
"&. c #B0B0B0",
"*. c #B2B2B2",
"=. c #B6B5B6",
"-. c #B6B6B6",
";. c #BBBABA",
":. c #F3A097",
">. c #F3A198",
",. c #D9ABA6",
"<. c #C5A0B2",
"1. c #F3C3BD",
"2. c #8A82CD",
"3. c #8D87CC",
"4. c #8E87CE",
"5. c #B6B3CD",
"6. c #B6B9D4",
"7. c #C1C1C1",
"8. c #C3C3C3",
"9. c #C5C5C5",
"0. c #C8C8C8",
"q. c #CCCBCB",
"w. c #C8C8CE",
"e. c #CACACF",
"r. c #CCCCCF",
"t. c #C9CFD9",
"y. c #D9D9D4",
"u. c #DBDBD6",
"i. c #DDDDD7",
"p. c #DAD9D9",
"a. c #DDDED8",
"s. c #F3C6C1",
"d. c #E2E3D6",
"f. c #E2E4D6",
"g. c #E4E5D6",
"h. c #E4E5D9",
"j. c #E4E5DA",
"k. c #E4E6DB",
"l. c #E6E6DB",
"z. c #E6E8D9",
"x. c #E7E8D9",
"c. c #E9EADA",
"v. c #EDE8DE",
"b. c #F2E0D6",
"n. c #D8E6E8",
"m. c #DAE9EB",
"M. c #E4E3E3",
"N. c #ECE4E3",
"B. c #E1E8E2",
"V. c #E6EBEB",
"C. c #EAEDED",
"Z. c #EFF6EE",
"A. c #E7F3F5",
"S. c #EEF3F4",
"D. c #F7F9F9",
"F. c #F7FCFC",
"G. c #FCFFFF",
"H. c #FEFFFF",
"J. c #FFFFFF",
"K. c None",
/* pixels */
"K.K.K.K.K.K.K.X @ K.K.K.K.K.K.K.",
"K.K.K.K.  1 @.9.9.$.5 X K.K.K.K.",
"K.K.K.% 8.H.H.H.H.H.H.q.- K.K.K.",
"K.K.$ p.H.F.s.>.:.1.D.H.M.- K.K.",
"K.  ;.H.N.N p w e t v b.H.9.@ K.",
"K., C.V.M 8 s d r x l b v.S.5 K.",
"K.} A.,.q a g y c R E Z <.Z.o.K.",
"X O.m.m 0 j k u K Q ^ G [ c.*.@ ",
"X o.n.n 7 h f z L ( ) T ] g.*.X ",
"K.{ B. .6 9 i C Y _ / J 3.x.X.K.",
"K., y.t.~ V B F P W H I e.a.4 K.",
"K.X @.k.6.U D S S S ! 5.j.;.@ K.",
"K.K.% 8.k.r.4.' ` 2.e.k.0.- K.K.",
"K.K.K.* &.u.x.f.d.k.a.-.- K.K.K.",
"K.K.K.K.X 1 | *.$...3 @ K.K.K.K.",
"K.K.K.K.K.K.K.X + K.K.K.K.K.K.K."
};
