/* XPM */
static char *bitcoin__[] = {
/* columns rows colors chars-per-pixel */
"32 32 194 2",
"   c #373737",
".  c #3C3C3C",
"X  c #5E0578",
"o  c #771264",
"O  c #424242",
"+  c #4B4B4B",
"@  c #525252",
"#  c #595959",
"$  c #676767",
"%  c #6C6C6C",
"&  c #767676",
"*  c #7D7D7D",
"=  c #B51E3E",
"-  c #BA293F",
";  c #B2333F",
":  c #C70F03",
">  c #C51C0E",
",  c #CD1E0A",
"<  c #D01300",
"1  c #DA1E02",
"2  c #D41F09",
"3  c #DC2808",
"4  c #CF271D",
"5  c #CC2C1E",
"6  c #DE2711",
"7  c #D72A16",
"8  c #DF2A15",
"9  c #DC2F1C",
"0  c #DE311D",
"q  c #E32A05",
"w  c #EA2E05",
"e  c #F22F0B",
"r  c #E72D17",
"t  c #EB2D16",
"y  c #EC2E18",
"u  c #E73317",
"i  c #E33318",
"p  c #EE311C",
"a  c #EC391C",
"s  c #F23A17",
"d  c #D03422",
"f  c #E23522",
"g  c #EE3621",
"h  c #E63925",
"j  c #EB3A24",
"k  c #EA3D29",
"l  c #FC431F",
"z  c #D84A3A",
"x  c #EE412D",
"c  c #FE4D29",
"v  c #EA4633",
"b  c #F54733",
"n  c #F64935",
"m  c #F94B30",
"M  c #FA4D39",
"N  c #E95136",
"B  c #FF5635",
"V  c #FE523E",
"C  c #85175D",
"Z  c #911850",
"A  c #AE2446",
"S  c #AE2B55",
"D  c #821760",
"F  c #83156D",
"G  c #952874",
"H  c #DF5E50",
"J  c #FF5541",
"K  c #F25947",
"L  c #F25948",
"P  c #D5685C",
"I  c #EE6657",
"U  c #F26555",
"Y  c #EE7062",
"T  c #F28073",
"R  c #F28679",
"E  c #3701A3",
"W  c #3A0EAE",
"Q  c #380FB5",
"!  c #3B10B3",
"~  c #581290",
"^  c #79258F",
"/  c #772592",
"(  c #6723A3",
")  c #0E00CB",
"_  c #1401CD",
"`  c #1B06CF",
"'  c #1D09CC",
"]  c #0E04DB",
"[  c #1400D0",
"{  c #1904D0",
"}  c #1E0CD2",
"|  c #1D07D8",
" . c #160CDB",
".. c #180CDA",
"X. c #200CCD",
"o. c #2613CD",
"O. c #2916CD",
"+. c #2B1ACE",
"@. c #301ECE",
"#. c #230FD0",
"$. c #2511D2",
"%. c #2A16D6",
"&. c #2413D8",
"*. c #2B15DE",
"=. c #2E1ADB",
"-. c #311DDE",
";. c #3D2DCE",
":. c #2D27DB",
">. c #2216E3",
",. c #2914E2",
"<. c #2519E7",
"1. c #291AE2",
"2. c #211AEE",
"3. c #241EF5",
"4. c #3622E3",
"5. c #3925E6",
"6. c #3D29EA",
"7. c #4526C2",
"8. c #4032CB",
"9. c #402CED",
"0. c #4531F1",
"q. c #4935F6",
"w. c #4E3AFA",
"e. c #513DFD",
"r. c #6E63CE",
"t. c #746ACD",
"y. c #7D7FD8",
"u. c #5541FF",
"i. c #5945FF",
"p. c #80278E",
"a. c #944D8E",
"s. c #804794",
"d. c #857DCE",
"f. c #848484",
"g. c #8E8E8E",
"h. c #949494",
"j. c #9C9C9C",
"k. c #A6A6A6",
"l. c #AAAAAA",
"z. c #B3B3B3",
"x. c #BCBCBC",
"c. c #E19888",
"v. c #DBA9A4",
"b. c #CABCBB",
"n. c #E9B0AA",
"m. c #E7B9B3",
"M. c #E9BFBB",
"N. c #F2B9B2",
"B. c #F2C1BC",
"V. c #938CCE",
"C. c #9893CF",
"Z. c #A39FCE",
"A. c #AFADCC",
"S. c #B1AECE",
"D. c #B6B2C9",
"F. c #B8B6CE",
"G. c #BAB9CD",
"H. c #C0BECE",
"J. c #BEC3D2",
"K. c #C6C6C6",
"L. c #C7C6CE",
"P. c #CDCDCE",
"I. c #D1C4C5",
"U. c #D1CDCD",
"Y. c #CFD0CE",
"T. c #D3D3CE",
"R. c #D7D8CD",
"E. c #DADBCE",
"W. c #C4C6D1",
"Q. c #CFD6D6",
"!. c #C7D3DB",
"~. c #D4D4D4",
"^. c #D9DCD2",
"/. c #D0D6D8",
"(. c #D3D8D9",
"). c #DADADA",
"_. c #EEC7C3",
"`. c #E5C9C6",
"'. c #E4DECF",
"]. c #EED3D0",
"[. c #E5DED9",
"{. c #D8E2E4",
"}. c #DEEBEC",
"|. c #E3E4E4",
" X c #E1E7E9",
".X c #E0ECEA",
"XX c #ECECEC",
"oX c #F5E9E7",
"OX c #E6F2F3",
"+X c #ECFAFC",
"@X c #F4F4F4",
"#X c #F4FDFE",
"$X c #FCFDFD",
"%X c None",
/* pixels */
"%X%X%X%X%X%X%X%X%X%X%X%X%X%XO . O . %X%X%X%X%X%X%X%X%X%X%X%X%X%X",
"%X%X%X%X%X%X%X%X%X%X%X%XO             . %X%X%X%X%X%X%X%X%X%X%X%X",
"%X%X%X%X%X%X%X%X%XO   . # & h.j.j.h.* # O   O %X%X%X%X%X%X%X%X%X",
"%X%X%X%X%X%X%X%X. O & x.XX$X$X$X$X$X$X@XK.f.+   %X%X%X%X%X%X%X%X",
"%X%X%X%X%X%XO   $ P.$X$X$X$X$X$X$X$X$X$X$X$X).*   O %X%X%X%X%X%X",
"%X%X%X%X%XO . g.$X$X$X$X$X#X$X$X$X$X$X#X$X$X$X$Xl.O . %X%X%X%X%X",
"%X%X%X%XO   j.$X$X@X@X#X#X#X@XoXoX@X#X#X@X@X@X#X$Xz.O O %X%X%X%X",
"%X%X%X%X  g.$X$XXX@X#X@XB.R U L L U T N.@X#X@X@X@X$Xl.. O %X%X%X",
"%X%X%X. $ XX@XXXXX+X].Y j p g j g g p a I _.#XXXXX@X$Xa.. %X%X%X",
"%X%XO O H.@XXXXX+XB.x t j k k k k k k k t k n.+XXXXX@X~.@ O %X%X",
"%X%X. & XXXX|.OX`.v i f x b h h h h s s a e s m.OX|.XX@Xg.. %X%X",
"%X%X. l.XX|.|. XH p h 0 k V n k u u S / ( ^ = N [. X|.XXK.+ + %X",
"%XO # T.|.)..Xv.8 h f 9 k J x i j p.<.3.2.3.1.F c.}.[.{.{.$ . %X",
"%X. % ).).).{.P 1 x b n M J h q G 3.*.$.4.6.>.| a.'.).^.|.f.. %X",
"O . f.).~./.U.z 6 f J J J J c 4 Q >.-.4.e.6.%...7.I.^.Q.{.j.. O ",
"O   f.).P./.b.d g 9 b J V V B A ' } 4.u.w.5.4.` O.D.E.Y.^.j.. O ",
"O . f.^.Y.Q.b.d 2 7 M J V J c A &.} 0.i.0.0.5._ o.A.R.P.).j.. . ",
"O . * ).Y.Q.J.A < 9 J J J m q C  .$.q.u.w.u.q.*.+.G.R.P.).h.. O ",
"%X. % ~.Y.Y.!.s.: 3 i k V c > Q  .$.q.u.u.w.9.,.;.Y.T.Y.).f.. %X",
"%XO # K.~.P.^.d.X , 1 1 q 4 ~  .' =.u.u.w.%.' _ t.E.Y.Y.~.% . %X",
"%X%XO k.).Y.R.W.:.E D Z o Q  .' %.5.5.e.6.' _ +.G.R.P.).x.+ O %X",
"%X%X. & (.Y.U.^.C.] ] .. . .X.X.$.5.#.=.6.#._ d.E.P.P.).g.. %X%X",
"%X%XO + z.(.P.T.E.d._ [ #.X.X.X.X.' o.$.{ [ t.R.T.P.~.K.# . %X%X",
"%X%X%X  % ~.Y.P.T.E.V.@._ _ ' ' ' ' _ ) $.d.R.T.P.Y.).f.. %X%X%X",
"%X%X%XO O g.).~.P.Y.E.G.t.8.o.X.X.o.;.r.F.R.Y.P.P.).k.O O %X%X%X",
"%X%X%X%XO O j.).U.P.P.R.^.P.S.Z.Z.A.L.R.R.P.P.~.).z.+ O %X%X%X%X",
"%X%X%X%X%XO O h.~.~.P.P.P.T.R.R.R.R.T.P.P.P.~.).k.+ . %X%X%X%X%X",
"%X%X%X%X%X%XO . & x.).~.~.P.P.P.P.P.P.T.~.).K.f.O . %X%X%X%X%X%X",
"%X%X%X%X%X%X%XO   @ f.z.P.).).).(.(.).U.x.g.#   O %X%X%X%X%X%X%X",
"%X%X%X%X%X%X%X%X%XO . + $ * g.j.j.h.f.% + . O %X%X%X%X%X%X%X%X%X",
"%X%X%X%X%X%X%X%X%X%X%XO . . . . . O . . O %X%X%X%X%X%X%X%X%X%X%X",
"%X%X%X%X%X%X%X%X%X%X%X%X%X%XO O O O %X%X%X%X%X%X%X%X%X%X%X%X%X%X"
};
